<?xml version="1.0" encoding="UTF-8"?>
<!DOCTYPE svg PUBLIC "-//W3C//DTD SVG 1.1//EN" "http://www.w3.org/Graphics/SVG/1.1/DTD/svg11.dtd">
<!-- Creator: CorelDRAW X7 -->
<svg xmlns="http://www.w3.org/2000/svg" xml:space="preserve" width="35.206mm" height="36.497mm" version="1.1" style="shape-rendering:geometricPrecision; text-rendering:geometricPrecision; image-rendering:optimizeQuality; fill-rule:evenodd; clip-rule:evenodd"
viewBox="0 0 1532 1588"
 xmlns:xlink="http://www.w3.org/1999/xlink">
 <defs>
  <style type="text/css">
   <![CDATA[
    .fil1 {fill:#FEFEFE}
    .fil0 {fill:#FEFEFE;fill-rule:nonzero}
   ]]>
  </style>
 </defs>
 <g id="Layer_x0020_1">
  <metadata id="CorelCorpID_0Corel-Layer"/>
  <g id="_2026612286048">
   <path class="fil0" d="M981 613c-1,1 -1,2 -1,3 0,2 1,4 2,5 1,0 1,0 1,1 2,2 5,3 7,3 1,1 2,0 3,0l0 0 0 0 0 0c2,-2 2,-4 2,-6 -1,-2 -3,-5 -5,-7 -1,-1 -1,-2 -2,-3l0 0c-3,-4 -4,-8 -3,-11 0,-4 2,-8 5,-11 0,0 1,0 1,-1l0 0c4,-3 8,-4 13,-3 4,0 8,2 12,5 3,3 5,7 6,11 1,4 1,9 -1,12l-9 -5c0,-1 0,-2 0,-4 -1,-2 -2,-4 -4,-6 -2,-1 -4,-2 -5,-2 -2,0 -4,0 -5,1l0 0c-1,0 -1,1 -1,1 -1,1 -1,2 -1,3 -1,1 0,2 1,4l0 0c1,1 1,1 1,1 3,4 6,7 7,12 2,5 1,11 -4,16l0 0c0,0 0,0 0,1l0 0c-4,3 -8,4 -13,3 -4,-1 -9,-3 -12,-6 -1,-1 -1,-1 -2,-1 -2,-3 -5,-7 -5,-11 0,-4 0,-8 3,-12l9 7zm-464 -14c2,1 3,3 4,4 4,4 8,8 13,12 7,6 15,10 20,4 4,-5 5,-9 2,-14 -2,-6 -10,-14 -21,-24l7 -8c13,10 21,19 24,27 5,10 3,18 -4,26 -10,13 -23,7 -35,-3 -5,-3 -9,-8 -13,-12 -2,-1 -3,-3 -4,-4l7 -8zm61 1l-27 -39 8 -6 42 9 -16 -25 10 -6 22 36 4 6 -8 4 -43 -10 18 25 -10 6zm37 -78l20 39 -9 5 -21 -39 10 -5zm19 -13l25 27 3 -35 11 0 -8 53 -39 -37 8 -8zm87 -13c-2,0 -4,1 -7,1 -7,1 -17,3 -17,6 0,3 0,5 0,7l22 -4 2 10 -21 5c0,2 1,3 2,5l0 0 1 3c0,0 2,0 5,0 6,-1 12,-3 17,-4l3 10c-5,2 -12,4 -18,5 -8,1 -15,0 -18,-7l-1 -3 0 0c-4,-10 -6,-16 -5,-28 1,-12 15,-14 27,-16 2,0 4,-1 5,-1l3 11zm62 39c-3,-6 -5,-10 -8,-13 -2,-2 -4,-4 -6,-5 -4,0 -8,0 -12,-1l-1 0 0 15 -11 0 0 -43 0 -4 5 -1c2,-1 4,-1 6,-1 8,-1 15,-1 21,1 7,2 12,6 13,14 0,1 0,1 0,1l0 0c1,1 1,1 1,1 0,5 -3,9 -7,12 -1,1 -1,2 -2,2 0,1 1,1 2,2 3,4 6,8 9,14l-10 6zm-27 -42l0 12 2 0c4,1 8,1 13,0 0,0 0,0 0,0 2,0 5,-1 6,-2 2,-1 3,-2 3,-3 -1,0 0,0 0,0l-1 0c0,-1 0,-1 0,-1 0,-3 -2,-4 -5,-5 -5,-2 -11,-2 -17,-1l-1 0zm58 31c1,2 2,3 4,5 2,1 4,1 5,2 3,0 6,-1 7,-2 2,0 3,-1 3,-3 0,0 0,-1 0,-1 0,-2 0,-3 -1,-3 -1,-1 -2,-2 -4,-2 0,-1 -1,-1 -2,-1l0 0 0 0 0 0c-5,0 -10,-2 -13,-5 -3,-4 -5,-8 -4,-13l0 0 0 0 0 0c0,-4 3,-8 7,-11 3,-2 8,-4 13,-3 4,0 8,2 11,5 2,2 4,5 5,7l-10 5c-1,-1 -2,-3 -3,-4 -1,-1 -2,-2 -4,-2 -2,0 -5,0 -6,1 -1,1 -2,2 -2,3l0 0 0 0 0 0c-1,1 0,3 1,4 2,1 4,2 6,2l0 0 0 0 0 0c1,0 2,1 3,1 4,0 8,2 10,5 3,3 5,7 4,12 0,1 0,2 0,2 -1,5 -4,9 -8,11 -4,2 -9,3 -13,3 -4,-1 -8,-2 -11,-4 -3,-2 -6,-5 -8,-8l10 -6zm61 -22l-15 44 -10 -4 14 -43 11 3zm9 51l17 -30 -12 -7 5 -9 34 17 -5 10 -12 -6 -18 31 -9 -6zm56 5c4,2 8,5 11,7 3,3 6,6 9,8 5,-7 7,-13 1,-18 -9,-6 -15,-3 -21,3zm4 16c-3,-3 -7,-5 -11,-8 -1,2 -2,3 -3,4 -1,2 -3,5 -5,7l-8 -7c1,-2 3,-5 5,-7 10,-15 23,-32 45,-17 14,9 11,22 2,34 -3,4 -7,9 -10,13 -2,2 -3,4 -4,5l-9 -7c2,-2 3,-4 4,-5 1,-1 2,-2 3,-4 -2,-3 -5,-5 -9,-8z"/>
   <path class="fil0" d="M539 969l17 19 4 4 -5 4c-2,2 -4,4 -6,6 -7,6 -15,12 -23,15 -4,1 -9,1 -13,-1 -4,-2 -8,-5 -11,-9 -3,-3 -5,-8 -6,-12 -1,-6 0,-11 1,-15l11 4c-1,2 -1,5 -1,9 1,3 2,6 3,7 2,3 4,5 7,6 2,1 4,1 6,0 6,-2 12,-7 18,-13 1,-1 2,-1 3,-2l-13 -15 8 -7z"/>
   <path class="fil0" d="M551 1020c1,-1 2,-2 3,-2 4,-4 10,-7 16,-8 7,0 14,2 20,9 1,0 1,1 2,2 5,6 6,13 5,19 -2,8 -7,14 -12,18 0,0 -1,1 -1,1 -4,3 -11,5 -17,5 -7,-1 -13,-3 -18,-8 0,0 0,-1 0,-1 -4,-5 -7,-12 -6,-18 0,-6 2,-12 8,-17zm10 6c-1,1 -2,1 -2,2 -4,3 -5,6 -5,9 -1,4 1,8 3,11 0,0 1,1 1,1 2,2 5,3 9,4 4,0 8,-1 10,-3 1,0 1,0 1,0 3,-3 7,-7 8,-12 1,-3 0,-7 -3,-11 0,0 -1,0 -1,-1 -4,-4 -7,-5 -11,-5 -3,1 -7,3 -10,5z"/>
   <path class="fil0" d="M632 1062c-1,-2 -2,-4 -4,-6 -2,-2 -4,-3 -5,-4 -3,-1 -7,0 -10,2 -4,2 -7,5 -8,8 -2,5 -3,10 -2,15 1,4 3,7 7,9 3,1 5,3 8,3 2,0 4,0 6,-1 2,-1 4,-4 5,-8 -3,-1 -7,-3 -10,-4 -2,-1 -4,-2 -6,-2l5 -11c1,1 3,2 5,2 6,3 13,6 16,8l3 3 -1 4c0,0 0,1 -1,2 -2,6 -5,12 -11,16 -4,2 -8,3 -13,2 -4,-1 -8,-2 -11,-4 -7,-4 -11,-10 -13,-16 -2,-8 0,-16 3,-22 2,-6 7,-11 13,-14 6,-3 12,-4 18,-2 3,1 7,3 10,6 3,3 5,7 7,10l-11 4z"/>
   <path class="fil0" d="M676 1066c3,2 6,3 10,4 3,1 7,2 12,4l5 1 -1 5c-1,7 -3,12 -4,17 -2,5 -4,10 -6,15 -2,4 -7,7 -12,9 -5,1 -10,1 -15,0 -7,-3 -12,-6 -15,-10 -3,-4 -5,-8 -6,-13l11 -2c0,3 1,5 3,8 3,2 6,4 11,6 2,1 5,1 8,0 2,0 4,-1 5,-3 2,-4 4,-8 5,-13 1,-3 2,-7 3,-11 -3,-1 -6,-2 -8,-2 -4,-2 -7,-3 -10,-4l4 -11z"/>
   <path class="fil0" d="M723 1106c5,0 9,0 13,1 5,0 10,1 15,1 0,-9 -3,-17 -12,-18 0,0 -1,0 -1,0 -4,0 -8,3 -11,9 -2,2 -3,4 -4,7zm12 12c-5,-1 -10,-1 -14,-1 -1,1 -1,3 -1,5 0,2 0,4 0,6l-11 0c0,-2 0,-5 0,-7 1,-10 4,-20 8,-28 5,-9 12,-14 21,-14 1,0 1,0 2,0 25,2 23,26 21,46 0,3 0,5 -1,7l-11 -1c1,-2 1,-5 1,-7 0,-1 0,-3 0,-4 -5,-1 -10,-2 -15,-2z"/>
   <polygon class="fil0" points="787,1084 788,1098 811,1077 818,1086 801,1101 822,1121 814,1129 793,1108 788,1112 789,1130 778,1130 776,1085 "/>
   <path class="fil0" d="M841 1119c-3,-11 -6,-22 -5,-31 0,-11 5,-19 17,-23 10,-4 17,0 23,9 5,8 8,19 12,32l-11 3c-1,-4 -2,-7 -3,-11l-25 8c1,3 2,7 2,10l-10 3zm6 -31c-1,2 0,5 0,7l24 -7c-2,-3 -3,-6 -4,-8 -3,-4 -7,-6 -11,-5 -6,2 -9,7 -9,13z"/>
   <path class="fil0" d="M914 1096l-23 -36 -3 -4 5 -3c2,-2 5,-4 7,-5 6,-4 11,-7 16,-11 5,-2 11,-2 15,-1 3,1 6,2 8,5 1,2 3,5 2,9 0,3 -1,6 -3,10 2,0 3,1 5,1 5,1 10,3 15,6l-6 9c-3,-2 -7,-4 -11,-4 -4,-1 -7,-1 -12,0 -2,3 -5,5 -7,7 -2,1 -3,2 -4,3l5 8 -9 6zm-11 -37l9 13c1,0 2,-1 3,-2 3,-2 5,-4 7,-6 6,-7 8,-12 8,-15 0,0 0,-1 0,-1 0,-1 -1,-1 -2,-1 -2,-1 -4,-1 -6,0 -5,3 -10,6 -15,10 -2,1 -3,1 -4,2z"/>
   <path class="fil0" d="M983 1046c-4,-6 -9,-11 -13,-16 -3,-4 -7,-7 -10,-10l-9 8 -8 -8 28 -25 8 8 -11 9c3,4 7,7 10,11 5,5 9,11 14,17l-9 6z"/>
   <path class="fil0" d="M1017 1014c-1,-2 -3,-3 -5,-5 -13,-11 -30,-24 -16,-45 10,-15 23,-12 35,-4 3,3 7,6 10,8 3,3 6,5 8,7l-6 9c-3,-2 -6,-4 -9,-7l0 0 -16 23 1 0c2,2 4,4 6,6l-8 8zm-12 -44c-5,9 -2,16 4,22l16 -22c0,0 0,0 -1,-1 -6,-4 -13,-7 -19,1z"/>
   <path class="fil0" d="M923 488c2,-2 1,-4 3,-6 2,-2 25,-26 27,-29 11,-12 19,-23 28,-35 8,-11 16,-23 25,-40 12,-19 22,-38 28,-59 5,-21 6,-44 -3,-73 -6,-20 -18,-34 -35,-46 -18,-11 -41,-19 -68,-24 -33,-6 -57,-14 -78,-22 -9,-3 -17,-6 -25,-8 -13,-4 -25,-10 -35,-18 -9,-7 -17,-15 -24,-23 -7,8 -14,16 -23,23 -11,8 -22,14 -35,18 -9,2 -17,5 -25,8 -21,8 -45,16 -79,22 -27,5 -50,13 -67,24 -17,12 -29,26 -35,46 -9,29 -9,52 -3,73 5,21 16,40 27,59 10,17 18,29 26,40 8,12 17,23 28,35 4,5 9,11 14,16 2,2 -1,6 1,8l1 2 -4 9 -2 -2c-8,-7 -16,-15 -22,-23 -11,-13 -20,-24 -29,-35 -8,-12 -16,-25 -26,-42 -12,-20 -23,-40 -29,-63 -7,-23 -7,-49 3,-81 7,-24 21,-42 41,-55 20,-12 44,-21 74,-26 32,-6 55,-14 76,-22 9,-3 17,-5 25,-8 11,-3 21,-9 30,-16 10,-7 19,-17 27,-28l6 -8 7 8c7,11 16,21 26,28 9,7 19,13 31,16 8,3 16,5 25,8 20,8 44,16 76,22 29,5 54,14 73,26 20,13 35,31 42,55 10,32 9,58 3,81 -6,23 -17,43 -29,63 -10,17 -18,30 -27,42 -8,11 -17,22 -28,35 -2,3 -4,5 -6,8 -1,1 -6,6 -12,11 -7,8 1,-12 0,-10l-24 16zm-416 66c-1,-3 -13,-3 -14,-5 -4,-10 -8,-20 -13,-28 -8,-14 -15,-26 -23,-37 -9,-12 -18,-24 -30,-38 -14,-17 -28,-34 -46,-46 -18,-12 -39,-21 -69,-22 -21,-1 -39,6 -55,18 -17,12 -32,31 -46,55 -18,30 -33,49 -47,67 -6,7 -11,13 -16,20 -9,11 -18,20 -30,27 -9,6 -19,11 -29,15 6,9 10,19 14,29 4,13 6,26 5,40 0,8 -1,17 -1,25 0,23 0,48 -6,82 -4,27 -4,51 1,72 4,20 14,36 31,48 24,19 46,26 67,28 22,2 43,-2 65,-6 19,-4 33,-7 47,-11 14,-4 26,-8 42,-14 9,-3 20,-8 30,-13 8,-4 20,-9 27,-12l4 8 -19 10c-4,2 9,2 3,5 -3,1 -6,2 -8,3 -11,5 -21,10 -32,14 -16,6 -29,10 -43,14 -14,4 -29,8 -48,11 -23,4 -46,8 -69,6 -24,-2 -49,-10 -76,-30 -19,-15 -31,-34 -37,-58 -5,-22 -5,-48 0,-78 5,-32 5,-57 6,-79 0,-9 0,-18 0,-26 1,-12 -1,-23 -4,-34 -4,-12 -10,-24 -18,-34l-6 -9 11 -3c12,-4 24,-9 35,-16 9,-6 18,-14 25,-23 5,-7 11,-14 16,-21 14,-17 30,-36 46,-65 15,-25 32,-46 50,-60 19,-14 41,-22 65,-21 34,2 58,11 78,25 19,13 34,31 49,49 13,15 22,27 30,39 9,12 16,24 25,38 5,9 9,19 14,29 1,3 2,6 3,8l-4 4zm44 -36l0 0 0 1 -12 -6 -47 -66c-20,-28 -40,-55 -60,-83l-1 -3 -1 0c-14,-16 -34,-28 -56,-36 -24,-9 -52,-13 -78,-12 -27,1 -51,10 -73,24 -25,16 -47,38 -61,60 -14,20 -23,36 -32,51 -11,20 -21,36 -38,58 -11,15 -17,28 -31,37 -11,6 -21,11 -33,14 7,10 12,20 16,32 6,15 2,30 1,49 -1,28 -4,47 -8,69 -2,17 -5,35 -8,60 -3,26 0,57 9,85 8,24 22,47 41,65 20,17 44,33 69,42l0 0c22,8 44,11 65,8 3,-1 7,-2 10,-3 33,-12 66,-21 98,-30 29,-9 59,-18 87,-26 6,-2 8,4 13,2l5 1 1 7c-4,1 -6,3 -10,4 -30,11 -60,19 -89,27l-4 1 -1 0c-32,10 -64,20 -95,29 -18,9 -34,26 -47,47 -16,26 -27,57 -33,84 -6,26 -3,52 4,77 9,28 25,54 42,74 17,18 30,32 42,43 16,17 30,31 46,52 12,16 20,31 24,46 4,12 5,23 5,35 12,-4 23,-6 35,-7 16,-2 33,0 52,6 26,8 44,16 65,25 15,7 31,14 55,23 25,10 55,15 85,13 25,-2 50,-9 73,-23 22,-15 43,-34 58,-56 13,-18 22,-39 24,-61 0,-35 0,-69 0,-103 0,-26 0,-52 0,-78 0,-9 7,-10 7,-19l3 4c1,10 6,8 6,18 1,25 0,50 0,75l0 0 0 0c0,34 1,68 0,103 2,22 11,43 25,61 15,22 36,41 58,56 22,14 48,21 73,23 30,2 60,-3 85,-13 23,-9 40,-16 55,-23 21,-9 39,-17 65,-25 18,-6 35,-8 51,-6 12,1 24,3 35,7 0,-12 2,-23 5,-35 5,-15 13,-30 24,-46 17,-21 31,-35 47,-52 12,-11 25,-25 41,-43 18,-20 34,-46 43,-74 7,-25 9,-51 4,-77 -6,-27 -18,-58 -34,-84 -13,-21 -29,-38 -47,-47 -30,-9 -60,-18 -89,-27l-2 -1 -3 -1c-31,-8 -72,-20 -106,-32l3 -5c11,2 18,-5 20,-5 29,9 63,20 90,28 30,8 59,16 92,28 4,1 7,2 11,3 21,3 43,0 65,-8l0 0c25,-9 48,-25 68,-42 20,-18 33,-41 41,-65 10,-28 12,-59 9,-85 -2,-25 -5,-43 -8,-60 -3,-22 -6,-41 -7,-69 -1,-19 -5,-33 0,-49 4,-11 9,-21 16,-31 -11,-4 -22,-8 -33,-14 -13,-9 -19,-23 -31,-38 -16,-22 -26,-38 -38,-58 -8,-15 -18,-31 -31,-51 -15,-22 -36,-44 -61,-60 -22,-14 -47,-23 -73,-24 -27,-1 -55,2 -80,11 -20,7 -38,17 -52,31 -1,2 -2,4 -2,5l-1 1 -107 150 -13 11 -11 9 3 -8 0 -1 0 0 0 0c4,-6 0,-9 5,-16 15,-22 32,-45 48,-68 21,-29 42,-59 62,-88l1 -1c0,-1 1,-2 2,-3 8,-17 12,-37 12,-58 -1,-26 -7,-54 -17,-78 -10,-25 -27,-45 -47,-61 -24,-19 -51,-31 -77,-37 -24,-6 -42,-10 -59,-13 -22,-4 -42,-7 -67,-16 -19,-6 -34,-17 -46,-27 -10,-8 -18,-16 -25,-26 -7,10 -15,18 -24,26 -13,10 -28,21 -46,27 -26,9 -45,12 -68,16 -16,3 -34,7 -58,13 -26,6 -54,18 -77,37 -20,16 -37,36 -47,61 -10,24 -17,52 -17,78 0,23 4,46 14,64l2 2 58 81 3 4c15,21 30,42 46,64 0,0 4,17 5,20l-6 -5zm-356 466c-18,0 -35,-4 -53,-10l0 0c-26,-10 -52,-27 -73,-46 -22,-19 -37,-44 -46,-71 -10,-31 -13,-63 -9,-92 2,-25 5,-43 8,-60 3,-22 6,-41 7,-67 1,-18 5,-31 1,-44 -5,-14 -12,-26 -22,-37l-8 -10 13 -3c14,-3 28,-7 40,-15 12,-7 16,-19 27,-32 16,-21 25,-38 37,-57 8,-14 17,-30 32,-52 16,-24 38,-47 66,-64 24,-15 51,-25 80,-26 28,-2 58,2 85,12 13,5 26,11 38,19 -3,-13 -5,-27 -5,-41 1,-28 8,-58 18,-84 11,-27 30,-50 52,-67 25,-20 55,-34 83,-41 25,-6 43,-9 60,-12 22,-4 40,-8 65,-16 17,-5 30,-15 41,-24 11,-9 20,-20 28,-33l6 -11 7 11c8,13 16,24 27,33 12,9 25,19 41,24 25,8 44,12 66,16 17,3 35,6 59,12 28,7 58,21 84,41 22,17 40,40 51,67 11,26 18,56 18,84 0,13 -1,27 -4,39 11,-7 24,-13 37,-18 27,-9 57,-13 86,-11 29,1 56,11 80,26 27,17 50,40 66,64 14,22 23,38 32,52 11,19 21,36 37,57 10,13 14,26 27,33 12,8 25,12 39,15l13 3 -8 10c-10,11 -17,23 -21,36 -5,14 0,26 0,44 1,26 4,45 8,67 2,17 5,35 8,60 3,29 0,61 -10,92 -9,27 -24,52 -45,71 -22,19 -47,36 -74,46l0 0c-17,6 -35,10 -52,10 10,10 19,21 27,34 17,27 29,60 35,89 6,28 4,57 -5,84 -9,31 -26,59 -45,81 -17,18 -30,32 -42,43 -16,16 -29,30 -45,51 -11,13 -18,27 -22,40 -4,14 -5,28 -4,43l1 13 -12 -6c-13,-6 -27,-10 -41,-11 -14,-1 -29,1 -46,6 -25,7 -42,15 -63,24 -15,7 -32,15 -55,24 -28,10 -60,16 -92,14 -28,-2 -56,-10 -80,-26 -24,-16 -47,-36 -63,-60 -8,-11 -15,-23 -20,-36 -4,13 -11,25 -19,36 -17,24 -39,44 -63,60 -24,16 -52,24 -80,26 -33,2 -65,-4 -92,-14 -23,-9 -40,-17 -56,-24 -20,-9 -37,-17 -63,-24 -16,-5 -31,-7 -45,-6 -15,1 -28,5 -41,11l-12 6 0 -13c1,-15 0,-29 -4,-43 -4,-13 -11,-27 -21,-40 -16,-21 -30,-35 -46,-51 -11,-11 -24,-25 -41,-43 -19,-22 -36,-50 -46,-81 -8,-27 -11,-56 -5,-84 7,-29 19,-62 36,-89 8,-13 17,-24 27,-34zm515 197c1,5 6,-11 7,-6 1,7 2,19 2,21 2,17 3,31 3,45 0,15 0,30 -1,50 -2,23 -4,46 -12,68 -8,23 -22,44 -49,65 -19,15 -41,22 -65,21 -23,0 -48,-7 -75,-19 -31,-14 -54,-20 -75,-26 -9,-3 -18,-5 -26,-7 -11,-4 -22,-5 -34,-5 -12,1 -25,4 -37,8l-11 4 0 -11c0,-13 -2,-26 -6,-38 -4,-11 -9,-21 -16,-30 -5,-7 -11,-14 -16,-21 -13,-18 -28,-38 -51,-61 -21,-21 -36,-42 -45,-64 -9,-22 -11,-45 -3,-68 10,-32 25,-53 43,-69 18,-15 39,-25 60,-35 18,-9 32,-14 46,-19 13,-5 27,-9 43,-14 10,-3 32,-6 43,-8l-9 13 14 2 -3 1c-10,1 -32,5 -41,7 -16,5 -29,9 -42,13 -14,5 -27,11 -44,19 -21,9 -40,19 -57,33 -16,14 -29,33 -38,61 -7,20 -5,39 3,58 8,20 22,39 41,59 24,24 39,44 53,62 5,7 10,14 15,21 9,11 15,23 19,35 3,10 5,21 6,32 11,-3 22,-5 32,-5 14,-1 27,1 40,5 9,2 16,5 25,7 22,6 46,13 77,26 25,11 48,18 69,19 21,0 39,-5 55,-18 24,-19 37,-38 44,-58 7,-21 9,-42 11,-65 1,-19 2,-33 2,-48 -1,-14 -2,-27 -3,-44 0,-2 -3,-23 -4,-26 0,-2 0,-4 -1,-6l7 -1 4 17zm119 -11c-1,4 4,3 4,6 -3,18 -5,34 -6,50 -1,20 -1,40 1,63 1,23 3,44 10,65 8,20 20,39 44,58 17,13 35,18 55,18 21,-1 44,-8 70,-19 31,-13 55,-20 77,-26 8,-2 16,-5 25,-7 13,-4 26,-6 39,-5 11,0 22,2 32,5 1,-11 3,-22 7,-32 4,-12 10,-24 18,-35 6,-7 11,-14 16,-21 13,-18 28,-38 52,-62 20,-20 34,-39 42,-59 8,-19 9,-38 3,-58 -9,-28 -23,-47 -39,-61 -16,-14 -36,-24 -56,-33 -17,-8 -31,-14 -44,-19 -13,-4 -26,-8 -43,-13 -9,-2 -42,-8 -53,-10l-2 0c-1,-2 20,1 22,-5 1,-1 -3,-7 -3,-8 14,3 34,6 41,8 16,5 29,9 43,14 14,5 28,10 46,19 21,10 41,20 59,35 19,16 34,37 44,69 7,23 6,46 -3,68 -9,22 -25,43 -46,64 -23,23 -37,43 -50,61 -6,7 -11,14 -16,21 -8,9 -13,19 -16,30 -4,12 -6,25 -7,38l0 11 -10 -4c-12,-4 -25,-7 -38,-8 -11,0 -22,1 -34,5 -7,2 -16,4 -25,7 -21,6 -45,12 -75,26 -27,12 -52,19 -76,19 -23,1 -45,-6 -65,-21 -26,-21 -40,-42 -48,-65 -8,-22 -10,-45 -12,-68 -2,-24 -2,-45 -1,-65 1,-14 2,-27 5,-42 1,-7 8,-12 10,-20l3 6zm195 -619c2,-4 3,-7 5,-10 1,-2 -2,-3 -1,-5 3,-8 7,-16 11,-23 9,-14 16,-26 24,-38 9,-12 18,-24 30,-39 15,-18 30,-36 50,-49 20,-14 44,-23 77,-25 25,-1 46,7 66,21 18,14 34,35 49,60 17,29 32,48 46,65 6,7 12,14 17,21 7,9 15,17 25,23 10,7 22,12 35,16l10 3 -6 9c-7,10 -13,22 -17,34 -4,11 -5,22 -5,34 1,8 1,17 1,26 0,22 0,47 6,79 4,30 5,56 -1,78 -5,24 -17,43 -37,58 -27,20 -51,28 -75,30 -24,2 -46,-2 -69,-6 -20,-3 -34,-7 -49,-11 -14,-4 -27,-8 -43,-14 -9,-4 -19,-9 -29,-14 -2,-1 -6,-1 -7,-4 -2,-2 -7,-10 -12,-12l9 -4c6,3 5,0 11,3 2,1 4,2 6,3 10,5 19,10 28,13 15,6 28,10 42,14 13,4 28,7 46,11 22,4 44,8 65,6 22,-2 44,-9 68,-28 16,-12 26,-28 31,-48 5,-21 4,-45 0,-72 -5,-34 -5,-59 -6,-82 0,-8 0,-17 0,-25 -1,-14 1,-27 5,-40 3,-10 8,-20 14,-29 -11,-4 -21,-9 -30,-15 -11,-7 -21,-16 -29,-27 -5,-7 -10,-13 -16,-20 -14,-18 -30,-37 -47,-67 -14,-24 -29,-43 -46,-55 -16,-12 -34,-19 -55,-18 -30,1 -52,10 -69,22 -18,12 -32,29 -47,46 -12,14 -21,26 -29,38 -8,11 -15,23 -24,37 -4,8 -9,18 -13,28 -1,3 -12,5 -13,7l-2 -5z"/>
   <path class="fil0" d="M1197 299c10,-41 16,-72 12,-111 -33,9 -63,23 -97,47l-5 -16c33,-22 68,-39 107,-49l9 -2 1 9c5,40 2,80 -12,121l-15 1z"/>
   <path class="fil0" d="M1381 1062c42,-2 73,-6 110,-22 -19,-29 -42,-53 -75,-78l14 -10c31,25 58,53 79,87l4 8 -7 3c-37,17 -76,27 -119,26l-6 -14z"/>
   <path class="fil0" d="M712 1466c15,39 28,69 54,99 21,-26 42,-61 54,-100l13 11c-9,29 -35,76 -62,106l-6 6 -5 -6c-27,-30 -48,-65 -60,-106l12 -10z"/>
   <path class="fil0" d="M123 961c-35,25 -59,45 -81,78 31,14 64,22 105,26l-6 15c-41,-4 -78,-13 -114,-31l-8 -4 5 -7c22,-34 49,-63 86,-86l13 9z"/>
   <path class="fil0" d="M421 244c-34,-26 -60,-43 -98,-55 -4,34 -3,69 6,110l-16 -2c-8,-40 -11,-79 -4,-119l2 -9 8 3c39,11 74,29 107,57l-5 15z"/>
   <path class="fil1" d="M766 778c16,0 29,13 29,29 0,16 -13,29 -29,29 -16,0 -29,-13 -29,-29 0,-16 13,-29 29,-29zm0 -13c23,0 42,19 42,42 0,23 -19,41 -42,41 -22,0 -41,-18 -41,-41 0,-23 19,-42 41,-42z"/>
   <path class="fil1" d="M766 727c44,0 80,36 80,80 0,44 -36,79 -80,79 -44,0 -80,-35 -80,-79 0,-44 36,-80 80,-80zm0 -13c52,0 93,42 93,93 0,51 -41,93 -93,93 -51,0 -93,-42 -93,-93 0,-51 42,-93 93,-93z"/>
   <path class="fil1" d="M766 692c64,0 115,51 115,115 0,63 -51,115 -115,115 -63,0 -115,-52 -115,-115 0,-64 52,-115 115,-115zm0 -9c69,0 125,55 125,124 0,68 -56,124 -125,124 -68,0 -124,-56 -124,-124 0,-69 56,-124 124,-124z"/>
   <path class="fil0" d="M548 1079c-12,11 -23,22 -34,32 -27,24 -53,48 -72,77 -15,23 -23,49 -31,76 -2,9 -5,19 -8,28 8,-5 16,-10 25,-15 24,-14 47,-29 66,-48 23,-26 41,-57 58,-88 8,-14 16,-28 25,-41 -11,-7 -20,-14 -29,-21zm-5 95c-5,10 -10,20 -12,30 -2,7 -4,14 -5,21 16,-11 30,-26 41,-44 13,-19 25,-42 36,-65 -6,-4 -13,-8 -19,-12 -9,14 -17,27 -24,41 -6,10 -12,20 -17,29l0 0zm68 -54c-4,7 -8,15 -12,22 -4,10 -6,20 -8,30 -2,9 -2,17 -3,26 8,-9 14,-19 20,-29 6,-13 11,-30 14,-44 -4,-2 -7,-4 -11,-5zm-29 53c-2,5 -5,9 -8,13 -14,21 -30,39 -50,51l-6 3 0 -7c0,-9 1,-17 3,-25 -7,9 -14,18 -21,26 -19,21 -44,35 -68,50 -17,10 -33,20 -49,33 10,-20 14,-35 20,-55 8,-28 16,-55 32,-78 6,-9 12,-17 19,-25 -7,3 -14,6 -21,8l-8 2 3 -8c5,-18 15,-34 27,-49 0,0 -1,0 -1,0 -7,2 -13,3 -19,4l-10 1 6 -8c6,-9 13,-18 21,-26 -4,1 -8,1 -12,2l-9 1 5 -8c7,-10 15,-20 24,-30 -7,3 -13,4 -19,5l-9 1 4 -7c5,-8 11,-15 17,-22 -6,2 -12,3 -18,3l-7 0 3 -6c4,-7 8,-13 14,-19 -4,0 -8,1 -12,1l-7 0 3 -6c3,-7 8,-13 14,-18 -6,1 -12,1 -18,0l-6 0 3 -6c3,-6 6,-12 11,-17 1,0 1,0 1,0 -5,0 -9,0 -14,-1l-6 -1 2 -5c3,-5 6,-9 11,-13 -5,-1 -10,-2 -15,-4l-4 -2 2 -4c3,-5 7,-9 11,-12 -5,-1 -11,-2 -16,-5l-5 -2 4 -4c2,-3 5,-6 8,-8 -5,-1 -9,-2 -14,-5l-5 -2 4 -4c3,-4 7,-7 11,-10 -5,0 -10,-1 -16,-3l-7 -2 6 -5c5,-4 10,-8 16,-11l0 0c-1,0 -1,0 -2,-1 -7,-1 -14,-2 -21,-5l-8 -2 7 -5c5,-4 11,-7 17,-9 -1,0 -2,0 -2,-1 -9,-1 -18,-4 -26,-7l-8 -3 7 -5c6,-3 13,-5 19,-7 -10,-2 -21,-5 -32,-9l-7 -3 6 -4c4,-3 8,-5 12,-7 -9,-2 -19,-5 -28,-10l-9 -4 9 -3c7,-3 13,-4 20,-6 -12,-2 -24,-5 -38,-11l-7 -3 7 -4c3,-2 7,-4 11,-6 -19,-6 -36,-14 -50,-25l-6 -5 7 -2c8,-3 16,-5 24,-6 -11,-3 -21,-7 -32,-11 -26,-10 -48,-28 -70,-46 -15,-12 -29,-22 -46,-33 20,1 37,0 57,-1 28,-3 56,-5 84,2 10,2 20,5 30,9 -5,-5 -10,-11 -15,-17l-4 -6 7 -1c22,-1 44,3 67,12l-1 -1c-4,-5 -7,-10 -10,-16l-4 -8 9 2c13,3 26,7 39,13l-1 -1c-4,-6 -8,-12 -10,-18l-4 -9 9 3c14,5 27,11 40,18 -6,-7 -11,-15 -15,-24l-3 -8 8 3c9,2 17,6 25,10 -3,-4 -6,-9 -8,-14l-3 -8 8 2c8,2 16,5 23,9 -3,-5 -5,-10 -6,-16l-2 -7 7 2c5,2 11,4 16,7 -2,-4 -4,-8 -5,-12l-1 -6 6 1c6,1 11,3 15,6 -2,-4 -3,-9 -4,-13l-2 -7 7 2c7,1 12,4 17,8 -1,-6 -2,-12 -2,-18l-1 -9 7 6c3,1 5,3 7,5 -1,-5 -1,-10 0,-15l1 -4 4 2c4,1 8,3 11,5 -1,-3 -1,-6 -1,-9l0 -6 5 2c5,1 8,4 12,7 -1,-5 -2,-10 -2,-15l0 -7 6 3c3,2 6,4 8,6 0,-5 -1,-10 0,-15l1 -7 5 3c5,3 9,6 12,10 -1,-6 -2,-13 -2,-20l0 -8 7 5c5,3 9,7 13,11 -2,-8 -3,-16 -3,-25l1 -7 5 4c8,4 14,10 19,16l0 0c-2,-13 -3,-26 -2,-39l0 -8 6 5c6,4 11,10 16,15 0,-6 0,-12 0,-18 1,-11 2,-23 6,-34l2 -6 4 4c6,6 11,13 15,21 -2,-25 0,-48 8,-69l3 -7 5 6c4,6 8,12 11,19 0,-10 0,-21 1,-31 2,-28 12,-55 23,-81 6,-16 12,-33 18,-49 7,16 12,33 18,49 11,26 21,53 23,81 1,11 1,22 1,33 3,-7 7,-14 13,-21l4 -6 3 7c7,19 9,39 9,61 3,-6 6,-10 9,-13l6 -5 1 7c2,12 3,24 3,36 0,4 0,8 0,13 4,-8 9,-15 16,-21l6 -6 0 9c0,11 0,22 -1,33 3,-5 7,-10 11,-15l7 -6 0 9c1,11 1,22 -1,33 0,2 -1,4 -1,7 5,-7 10,-13 16,-20l7 -6 0 9c1,7 0,13 -1,19 3,-3 7,-6 11,-9l7 -5 -1 8c0,9 -1,16 -2,23 4,-4 9,-8 15,-11l5 -3 1 7c0,5 -1,11 -2,16 3,-2 7,-4 11,-6l5 -3 1 6c0,6 0,11 -1,16 3,-3 7,-6 10,-7l5 -3 1 6c1,7 0,14 -2,21 1,-1 2,-1 2,-2 5,-3 10,-6 14,-8l7 -2 -1 7c-1,5 -2,11 -5,17 1,0 1,-1 2,-1 5,-3 10,-6 16,-8l7 -3 -1 7c-1,4 -2,8 -4,12 4,-2 9,-4 14,-5l6 -1 -1 6c-1,4 -2,8 -4,12 5,-3 11,-5 16,-6l6 -1 -1 6c-1,5 -2,10 -4,14 6,-3 13,-7 19,-9l7 -3 -1 7c-1,7 -4,13 -7,18 10,-5 19,-9 28,-11l6 -2 -2 7c-2,7 -6,14 -11,21 11,-6 22,-11 34,-14l9 -3 -4 9c-3,6 -7,12 -11,18 2,-1 5,-3 8,-4 9,-4 20,-7 30,-10l7 -1 -2 7c-2,6 -5,12 -9,17l0 0c21,-7 41,-11 62,-10l7 1 -4 6c-4,6 -9,12 -15,17 10,-4 20,-7 30,-9 28,-7 56,-4 84,-2 18,1 35,2 52,2 -13,12 -27,22 -41,33 -22,17 -44,35 -70,45 -11,5 -21,8 -32,11 8,1 16,3 24,6l7 2 -6 5c-17,14 -38,23 -62,28 3,1 5,1 7,2l0 0c7,2 14,4 19,6l9 4 -9 4c-15,6 -30,9 -45,11 10,2 19,5 26,9l8 5 -9 3c-13,4 -25,6 -35,8 7,2 14,5 20,10l7 5 -8 2c-11,2 -21,4 -31,5 7,2 13,6 19,10l7 5 -9 2c-8,2 -16,3 -23,4 6,3 11,7 16,12l4 5 -6 2c-6,1 -12,2 -17,2 4,3 7,6 9,9l1 5 -4 1c-4,2 -9,3 -14,3 5,3 9,7 12,11l3 5 -5 1c-5,2 -11,3 -17,4 4,3 8,6 10,10l3 4 -5 2c-5,2 -11,3 -16,3l0 0c6,4 11,9 14,14l3 5 -6 2c-6,1 -12,1 -19,1 5,4 9,8 11,14l3 5 -6 1c-4,0 -8,0 -12,0 4,3 7,6 9,9l4 5 -6 1c-6,2 -12,2 -18,2l1 0c5,5 10,11 13,17l3 5 -6 1c-5,0 -10,0 -15,0 7,4 12,9 17,14l5 7 -9 0c-6,0 -12,-1 -17,-2 6,6 12,13 17,20l4 7 -8 -1c-7,0 -14,-1 -21,-3 9,8 17,17 24,27l5 9 -10 -2c-7,-2 -14,-3 -21,-6 3,3 5,6 8,9 8,12 16,24 24,35 -15,-3 -27,-7 -41,-13 16,20 33,44 45,67 -11,-3 -18,-7 -29,-12 8,9 15,18 22,28 15,23 23,50 31,78 6,20 11,36 20,55 -16,-13 -31,-22 -49,-33 -24,-15 -48,-29 -67,-50 -8,-8 -15,-17 -21,-26 2,8 3,16 3,25l0 7 -6 -3c-20,-12 -36,-30 -51,-51 1,1 1,3 1,4 -1,7 -1,14 -3,20l-2 8 -5 -6c-11,-14 -20,-28 -28,-43 0,-1 -1,-1 -1,-2 2,15 2,29 -1,43 -11,-10 -17,-21 -23,-35 0,8 -1,16 -2,22l-2 10 -6 -8c-6,-9 -12,-18 -16,-29 -1,7 -3,14 -5,20l-3 7 -4 -6c-6,-7 -9,-15 -12,-23 -1,7 -3,13 -6,19l-3 6 -4 -5c-4,-5 -7,-10 -9,-15 -2,5 -3,9 -6,13l-3 7 -4 -7c-2,-3 -4,-7 -5,-12 -2,4 -3,7 -5,11l-3 5 -4 -5c-2,-3 -5,-6 -7,-10 -1,5 -3,9 -6,14l-4 5 -3 -6c-2,-3 -5,-7 -8,-13 0,-2 -1,-4 -2,-6 0,0 0,0 0,1 -2,6 -5,11 -9,15l-3 3 -3 -3c-4,-5 -6,-9 -7,-15l-1 1c-2,6 -5,12 -9,17l-4 7 -3 -8c-2,-4 -3,-9 -4,-14 -3,5 -6,9 -10,13l-5 5 -2 -6c-2,-4 -3,-9 -4,-13l0 0c-3,8 -8,14 -13,18l-5 4 -2 -6c-1,-5 -2,-10 -3,-15 -3,8 -7,15 -13,22l-6 6 -1 -8c-2,-7 -2,-14 -2,-21 -1,1 -1,2 -2,3 -5,10 -11,18 -18,24l-7 5 0 -9c0,-5 0,-10 1,-15 -6,12 -12,20 -21,30 -1,-8 -2,-16 -3,-24 -5,9 -12,17 -20,25l-7 6 0 -9c0,-11 0,-23 2,-35zm48 -45c-3,15 -8,28 -13,40 -1,6 -1,11 -1,16 0,2 0,3 0,5 4,-7 8,-14 12,-22 5,-10 9,-21 13,-33l1 -1c-4,-1 -8,-3 -12,-5zm320 41c-9,-15 -18,-33 -27,-50 -3,2 -7,3 -11,5 5,14 11,28 18,41 7,12 14,23 22,34 0,-3 0,-6 0,-9 0,-6 0,-13 -2,-21zm-19 -54c11,24 23,46 36,66 12,18 25,33 41,44 -1,-7 -2,-14 -4,-21 -3,-10 -7,-20 -12,-30l0 0c-6,-9 -11,-19 -17,-29 -8,-14 -16,-28 -25,-41 -6,4 -13,7 -19,11zm-282 21l0 1c-3,10 -6,20 -8,29 -1,7 -2,13 -2,19 3,-4 6,-8 9,-14 4,-9 8,-19 11,-32 -3,-1 -6,-2 -10,-3zm19 6c-2,8 -3,15 -3,22 0,6 0,12 0,18 7,-10 10,-22 14,-36 0,-1 0,0 0,-1 -4,-1 -7,-2 -11,-3zm20 5c-1,6 -1,12 -1,17 0,5 1,10 2,15 2,-3 4,-6 6,-10 2,-6 4,-12 6,-19 -4,-1 -9,-2 -13,-3zm22 4c0,6 0,10 0,15 0,3 1,6 2,9 2,-3 3,-6 5,-10 2,-4 3,-8 4,-12 -4,0 -7,-1 -11,-2zm20 3c-1,5 0,10 0,14 1,3 1,5 2,8 1,-3 3,-6 4,-9 1,-3 3,-8 4,-12 -3,0 -7,-1 -10,-1zm20 2c0,4 0,7 1,11 1,3 2,5 3,8 2,-3 3,-5 4,-8 1,-4 2,-7 3,-11 -4,0 -7,0 -11,0zm21 0c2,6 3,11 5,15 1,3 2,5 3,7 3,-7 4,-14 5,-22 -4,0 -8,0 -13,0zm22 -1c0,6 1,10 3,14 1,2 1,4 3,6 1,-3 2,-6 2,-10 1,-3 2,-7 2,-11 -3,0 -7,1 -10,1zm18 -2c1,6 2,10 3,15 1,2 2,4 3,6 1,-3 2,-6 3,-9 1,-4 1,-8 2,-13 0,0 0,0 0,0 -4,0 -7,1 -11,1zm19 -3c0,1 0,2 0,2 0,5 1,10 2,14 1,4 3,7 5,11 1,-5 3,-9 4,-14 0,-5 1,-10 1,-15 -4,1 -8,1 -12,2zm22 -5c1,7 2,14 4,20 1,5 3,10 6,14 1,-6 2,-12 3,-17 0,-7 0,-13 -1,-19l0 -1c-4,1 -8,2 -12,3zm20 -5c0,0 0,1 0,2 2,9 4,17 7,25 3,6 6,12 10,18 1,-6 1,-12 0,-19 -1,-9 -2,-18 -4,-28 0,-1 -1,-2 -1,-2 -4,1 -8,2 -12,4zm20 -7c0,1 1,2 1,3 3,11 6,22 10,32 4,8 8,15 12,22 0,-10 -1,-19 -2,-29 -2,-11 -5,-22 -8,-34 -4,2 -9,4 -13,6zm169 5c6,3 11,5 16,8 3,2 7,3 11,5 -14,-21 -28,-41 -46,-59 -14,-8 -27,-17 -39,-28 -4,3 -7,6 -10,9 11,11 22,21 34,32 11,11 23,21 34,33zm-104 -39c9,14 17,28 25,42 18,31 35,62 59,88 18,19 42,34 66,48 8,5 17,10 25,15 -3,-9 -6,-19 -9,-28 -7,-27 -15,-53 -30,-76 -20,-29 -46,-53 -72,-77 -12,-11 -24,-22 -35,-33 -9,7 -19,14 -29,21zm52 -41c12,11 25,20 40,28 11,6 22,11 35,14 -4,-5 -8,-10 -12,-15 -6,-8 -12,-15 -19,-21l0 -1c-11,-5 -22,-11 -32,-17 -2,2 -5,5 -8,8 -1,1 -3,3 -4,4zm18 -19c9,7 19,12 29,17 9,4 18,7 27,9 -5,-7 -11,-13 -18,-19 -8,-7 -17,-14 -26,-21 -4,5 -8,10 -12,14zm17 -21c7,5 15,10 22,13 7,2 13,4 20,5 -5,-5 -9,-9 -14,-13 -7,-5 -14,-10 -21,-14 -2,3 -5,6 -7,9zm12 -16c6,3 12,5 18,7 5,2 9,2 14,3 -3,-2 -6,-5 -10,-7 -5,-3 -11,-7 -18,-10 -1,3 -3,5 -4,7zm9 -14c5,1 9,2 14,3 4,1 8,1 13,1 -2,-3 -5,-6 -8,-9 -3,-3 -7,-6 -11,-9 -3,5 -5,9 -8,14zm12 -23c4,2 8,3 11,3 3,1 6,1 10,1 -2,-2 -5,-4 -7,-5 -3,-2 -7,-4 -10,-5 -1,2 -2,4 -4,6zm8 -15c3,1 7,1 10,2 3,0 6,0 9,0 -1,-2 -3,-4 -5,-5 -3,-3 -7,-5 -10,-6 -1,3 -3,6 -4,9zm8 -19c3,1 7,1 11,1 3,0 7,0 11,0 -2,-3 -5,-5 -8,-7 -3,-2 -7,-4 -10,-6 -1,4 -3,8 -4,12zm7 -21c4,0 7,0 11,0 3,0 6,0 8,-1 -1,-2 -3,-3 -6,-5 -3,-2 -6,-3 -10,-5 -1,4 -2,7 -3,11zm6 -20c4,0 8,1 12,0 4,0 7,0 11,-1 -3,-2 -6,-4 -9,-5 -3,-2 -8,-4 -12,-6 -1,4 -2,8 -2,12zm4 -21c4,1 8,1 13,1 3,0 7,0 10,-1 -2,-2 -4,-3 -7,-4 -4,-2 -9,-4 -14,-6 -1,3 -2,7 -2,10zm3 -19c5,1 11,2 16,2 4,0 9,0 13,-1 -3,-3 -7,-5 -11,-7 -5,-2 -11,-3 -17,-5 0,4 -1,7 -1,11zm2 -20c6,0 13,1 19,0 5,0 10,0 15,-1 -4,-2 -9,-4 -13,-5 -7,-2 -14,-3 -21,-4 0,3 0,7 0,10zm0 -19c9,0 18,0 26,-1 7,-1 14,-2 21,-3 -14,-6 -30,-8 -47,-8 0,3 0,5 0,8 0,1 0,2 0,4zm0 -21l2 0c19,0 37,-1 61,-7 -8,-2 -16,-4 -25,-5 -12,-1 -25,-1 -39,-1 1,5 1,9 1,13zm-2 -21c4,-1 7,-1 10,-1l0 0c25,-2 50,-5 74,-12 -3,-1 -5,-1 -7,-2l0 0c-7,-2 -16,-4 -25,-5 -17,3 -35,5 -53,7 0,4 1,8 1,13zm-3 -21c25,-3 49,-6 70,-11 21,-5 40,-12 56,-23 -7,-2 -14,-3 -22,-3 -10,-1 -20,-1 -31,1l0 0c-11,2 -22,3 -34,5 -14,3 -29,5 -43,8 2,7 3,15 4,23zm-20 -74c13,-6 26,-13 40,-19 10,-5 20,-11 30,-15 10,-6 19,-11 27,-17 5,-5 11,-10 15,-16 -19,0 -39,5 -58,13 -21,9 -43,20 -65,32 4,7 7,15 11,22zm14 43c14,-3 29,-6 44,-8 35,-6 70,-11 103,-24 25,-10 46,-28 68,-45 7,-6 15,-12 23,-18 -10,0 -20,-1 -29,-2 -28,-2 -56,-4 -82,2 -34,8 -66,24 -97,40 -14,7 -28,14 -41,20 4,11 8,23 11,35zm-28 -72c18,-11 36,-20 54,-28 5,-4 9,-8 12,-13 2,-2 4,-5 5,-8 -7,2 -14,5 -21,8 -9,4 -18,9 -27,14 -8,8 -16,16 -25,23 0,1 1,2 2,4zm-236 -180c2,-9 4,-18 7,-27l-1 0c1,-11 1,-23 1,-34 0,-9 0,-17 -1,-25 -1,2 -2,3 -3,5 -3,5 -5,11 -8,17 -2,20 -6,40 -10,61 5,1 10,2 15,3zm230 168c9,-7 18,-15 26,-23 6,-7 12,-15 17,-23 -8,3 -16,7 -24,12 -10,5 -20,11 -29,19 3,5 6,10 10,15zm-15 -22l2 -2c12,-11 24,-22 30,-35 -5,2 -11,5 -17,8 -8,5 -16,10 -24,16 3,4 6,8 9,13zm-14 -20c9,-7 17,-16 21,-27 -4,2 -9,5 -13,8 -5,3 -10,7 -15,11 3,3 5,6 7,8zm-12 -15c3,-3 6,-7 8,-11l0 0c2,-4 4,-8 5,-12 -3,1 -7,3 -10,5 -4,3 -8,6 -12,9 3,3 6,6 9,9zm-15 -15c3,-4 5,-7 7,-10 1,-3 3,-6 4,-8 -3,1 -6,2 -9,4 -3,2 -6,4 -8,7 1,2 3,4 5,6 0,0 1,0 1,1zm-13 -13c3,-5 6,-10 8,-16 -2,1 -4,3 -7,4 -3,2 -5,4 -8,6 2,2 5,4 7,6zm-16 -13c3,-5 5,-10 6,-15 -1,1 -3,2 -5,3 -2,2 -5,4 -8,6 3,2 5,4 7,6zm-16 -12c2,-6 4,-13 4,-18 -2,1 -4,3 -6,5 -3,2 -5,4 -7,6 3,2 6,4 9,7zm-16 -12c1,-3 2,-6 3,-9 0,-3 1,-6 1,-9 -2,2 -4,4 -6,6 -2,2 -4,5 -6,8 3,1 5,3 8,4zm-16 -9c2,-7 5,-14 5,-22 -2,2 -5,4 -7,6 -3,3 -6,7 -9,10 4,2 8,4 11,6zm-20 -10c2,-4 3,-9 4,-14 1,-4 2,-8 2,-12 -2,2 -5,5 -7,8 -3,4 -6,8 -8,13 3,2 6,3 9,5zm-18 -8c4,-10 8,-19 9,-30 -3,4 -6,8 -9,11 -3,5 -7,10 -9,15 3,1 6,3 9,4zm-18 -7c2,-9 3,-17 5,-25 1,-7 1,-14 1,-21 -5,7 -8,13 -11,20 -2,4 -4,9 -5,14 0,3 -1,6 -2,8 4,1 8,2 12,4zm-20 -6c1,-3 1,-5 2,-8 2,-9 3,-18 5,-27 1,-9 2,-18 2,-26 -5,6 -9,14 -12,22 -5,11 -7,23 -9,35 4,1 8,2 12,4zm-45 -10c6,-25 10,-50 12,-73 1,-21 0,-41 -5,-60 -4,7 -8,13 -10,20 -4,9 -7,19 -9,30l0 0c-1,12 -3,23 -4,34 -3,15 -5,31 -7,47 8,0 16,1 23,2zm-75 -3c-2,-15 -4,-31 -7,-46 -2,-11 -4,-22 -5,-34l0 0c-2,-11 -5,-21 -8,-30 -3,-7 -6,-13 -10,-20 -6,19 -7,39 -6,60 2,23 7,48 12,73 8,-1 16,-2 24,-3zm44 0c2,-16 4,-32 6,-47 5,-36 11,-71 8,-106 -2,-27 -12,-52 -22,-78 -4,-9 -8,-18 -11,-28 -3,10 -7,19 -10,28 -11,26 -21,51 -23,78 -2,35 3,70 9,105 3,16 6,32 7,48 6,0 12,0 17,0 7,0 13,0 19,0zm-83 -27c-2,-13 -6,-25 -10,-35 -3,-7 -6,-13 -10,-18 -2,8 -3,16 -4,25 0,11 0,22 1,33 4,10 7,20 10,30 6,-1 13,-3 20,-4 -3,-10 -5,-21 -7,-31zm-21 37c-3,-10 -6,-20 -10,-29 -4,-8 -9,-16 -15,-22 0,9 0,19 2,28 2,9 5,18 9,27 5,-2 9,-3 14,-4zm-22 6c-4,-6 -8,-12 -12,-18 -4,-5 -9,-10 -14,-14 1,7 2,13 4,19 1,6 4,12 7,19 5,-2 10,-4 15,-6zm-24 9l0 0c-6,-8 -11,-16 -18,-22 1,4 1,7 2,11 1,5 3,11 5,16 4,-2 7,-3 11,-5zm-19 8c-2,-3 -5,-7 -8,-10 -2,-3 -5,-6 -8,-8 0,4 1,8 2,11 1,4 3,8 5,12 3,-2 6,-3 9,-5zm-17 9c-3,-5 -7,-10 -12,-14 0,3 1,6 2,9 1,3 2,6 3,9 3,-1 5,-3 7,-4zm-15 9c-4,-5 -8,-9 -12,-12 1,6 3,11 6,16 2,-2 4,-3 6,-4zm-14 9c-4,-6 -9,-11 -14,-15 0,3 0,6 1,9 2,3 4,7 7,10 2,-1 4,-3 6,-4zm-14 10c-3,-2 -5,-4 -8,-6 -1,-1 -2,-2 -4,-4 0,3 1,5 2,7 0,3 1,6 2,9 3,-2 5,-4 8,-6zm-15 12c-3,-2 -5,-4 -8,-6 -2,-2 -5,-3 -8,-5 1,3 3,6 4,9 2,2 3,5 5,8 2,-2 4,-4 7,-6zm-14 12c-3,-2 -6,-4 -9,-6 -2,-2 -5,-3 -8,-5 1,4 3,7 4,10 2,3 4,5 6,8 2,-2 5,-4 7,-7zm-13 14c-4,-3 -8,-6 -12,-9 -3,-2 -6,-4 -9,-5 2,4 4,8 6,11 3,4 5,7 8,10 2,-3 4,-5 7,-7zm-13 14c-5,-4 -10,-7 -15,-10 -4,-3 -9,-5 -13,-6 2,3 4,7 7,11 4,4 9,9 13,14 3,-3 5,-6 8,-9zm-13 16c-7,-5 -14,-10 -21,-14 -5,-3 -11,-6 -16,-8 3,6 7,11 12,16 5,6 11,11 17,17 3,-4 5,-7 8,-11zm-13 18l-2 -1c-17,-10 -34,-20 -52,-27 1,2 3,5 5,7 4,5 9,11 15,16 9,5 18,10 27,16 2,-4 5,-7 7,-11zm-11 18c-12,-8 -25,-15 -38,-21 -12,-6 -25,-11 -38,-14 2,2 3,4 5,6 3,5 8,9 12,14 17,7 35,17 53,27 2,-4 4,-8 6,-12zm-10 19c-23,-13 -45,-24 -66,-33 -20,-8 -40,-13 -59,-13 4,6 10,11 15,16 8,6 17,11 27,16 10,5 20,10 30,15 14,8 28,15 43,21 3,-7 6,-15 10,-22zm-106 59c-11,-2 -21,-2 -31,-2 -7,1 -15,2 -22,4 16,11 35,18 56,23 22,5 46,8 72,11 1,-8 2,-16 4,-23 -15,-3 -30,-6 -45,-8 -11,-2 -22,-4 -33,-6l-1 1zm73 44c-23,-3 -46,-5 -67,-10 -4,0 -9,1 -14,2 -2,1 -3,1 -5,2 24,9 45,9 65,9 7,0 14,0 21,1 0,-2 0,-3 0,-4zm20 -73c-15,-7 -29,-14 -44,-21 -31,-16 -63,-32 -97,-40 -26,-6 -54,-4 -81,-2 -10,1 -20,1 -30,2 8,6 16,12 23,18 22,17 43,34 68,45 33,13 68,18 103,24 16,2 31,5 46,8 4,-12 7,-23 12,-34zm-23 107c-10,1 -19,1 -29,1 -5,1 -10,2 -14,4 -2,0 -4,1 -6,2 8,3 16,4 23,6 9,1 17,2 25,2 0,-5 0,-10 1,-15zm1 -21c-12,0 -24,0 -35,1 -10,1 -20,3 -29,5 10,4 19,6 29,7 11,1 23,1 34,0 1,-5 1,-9 1,-13zm64 361c8,-8 17,-15 25,-23 11,-10 22,-21 33,-31 -6,-6 -12,-11 -18,-17 -19,16 -37,32 -52,49 -14,16 -26,32 -33,50 7,-2 14,-5 20,-9 9,-5 17,-11 25,-19zm34 -77c-3,-3 -6,-6 -9,-10 -13,11 -25,22 -37,33 -10,10 -19,21 -27,32 2,-1 5,-1 7,-2 6,-2 12,-4 17,-8 15,-15 31,-30 49,-45zm-15 -16c-2,-2 -4,-5 -6,-7 -2,2 -5,4 -8,5 -7,6 -14,13 -21,19 -7,8 -13,15 -19,23 2,0 4,-1 5,-1 5,-2 9,-4 14,-7 11,-11 22,-21 35,-32zm-11 -14c-3,-3 -6,-7 -8,-10 -8,5 -14,10 -21,16 -5,5 -9,10 -13,16 6,-2 13,-4 19,-7 5,-3 11,-6 16,-9 2,-2 4,-4 7,-6zm-13 -17c-3,-4 -5,-8 -7,-11 -1,0 -2,1 -3,1 -6,4 -10,8 -15,12 -4,4 -7,8 -11,13 6,-1 11,-3 17,-5 6,-3 13,-6 19,-10zm-12 -19c-1,-2 -3,-5 -5,-8 -4,3 -9,6 -13,9 -3,3 -5,6 -8,9 4,0 8,-1 12,-3 3,-1 7,-3 11,-5 1,0 2,-1 3,-2zm-9 -16c-3,-5 -5,-9 -7,-14 -4,2 -8,5 -11,8 -2,3 -5,6 -7,9 5,0 9,0 13,-1 4,0 8,-1 12,-2zm-11 -23c-1,-3 -3,-6 -4,-10 -3,2 -6,4 -9,7 -2,1 -4,3 -6,5 3,0 7,0 10,0 3,0 6,-1 9,-2zm-7 -18c-2,-4 -3,-8 -5,-13 -2,2 -4,4 -7,5 -2,2 -4,5 -6,7 3,1 6,2 9,2 3,0 6,0 9,-1zm-7 -22c-1,-3 -3,-7 -3,-11 -3,2 -6,3 -8,5 -3,1 -5,3 -7,5 3,1 6,2 9,2 3,0 6,0 9,-1zm-6 -19c0,-4 -1,-7 -2,-11 -3,1 -6,3 -9,5 -3,1 -5,3 -8,5 3,1 6,2 9,2 4,0 7,-1 10,-1zm-4 -20c0,-4 -1,-7 -1,-10 -4,1 -7,3 -10,4 -3,2 -6,4 -8,5 3,1 6,1 9,1 3,0 7,0 10,0zm-3 -21c0,-4 0,-8 -1,-12 -4,2 -9,3 -13,5 -3,1 -6,3 -9,4 3,1 7,2 10,2 5,1 9,1 13,1zm-1 -21c-1,-5 -1,-9 -1,-13 -6,1 -13,2 -19,3 -5,1 -9,3 -14,5 5,1 10,2 15,3 6,1 12,2 19,2zm587 -257c-61,-61 -146,-99 -239,-99 -93,0 -177,38 -238,99 -61,61 -99,146 -99,239 0,93 38,177 99,238 61,61 145,99 238,99 93,0 178,-38 239,-99 61,-61 99,-145 99,-238 0,-93 -38,-178 -99,-239z"/>
   <path class="fil1" d="M766 542c146,0 265,119 265,265 0,146 -119,265 -265,265 -146,0 -265,-119 -265,-265 0,-146 119,-265 265,-265zm0 115c83,0 150,67 150,150 0,82 -67,149 -150,149 -82,0 -149,-67 -149,-149 0,-83 67,-150 149,-150zm13 -89l4 -2 4 -3 5 -1 5 -1 6 -1 6 0 7 1 6 1 7 1 6 2 7 2 7 3 6 3 6 3 6 4 6 4 5 4 4 4 4 4 4 4 2 5 2 4 1 4 1 4 -1 4 -1 4 -2 4 -32 44 -2 -2 -3 -2 -3 -2 -6 -3 -6 -4 -7 -3c-4,-2 -7,-3 -11,-4 -4,-2 -7,-3 -11,-4 -4,-1 -7,-2 -11,-3l-7 -2c-3,0 -6,-1 -9,-1l-6 -1 -2 0 -3 0 -2 1 -1 0 -1 -50 0 -6 2 -6 2 -5 2 -4 4 -4zm137 53l5 0 5 1 5 2 5 2 5 3 5 4 5 4 4 4 5 5 4 6 4 6 4 6 3 6 3 6 3 7 2 6 2 6 1 6 1 6 0 5 0 5 -1 5 -1 4 -2 4 -3 3 -4 2 -4 2 -51 17 -1 -3 -1 -3 -2 -7 -4 -6 -3 -7 -4 -7c-2,-3 -4,-6 -6,-9 -2,-4 -5,-7 -7,-10 -2,-3 -5,-5 -7,-8l-5 -5 -4 -5c-4,-3 -7,-6 -12,-8l29 -40 4 -6 5 -3 4 -3 5 -2 4 -1zm81 124l4 3 3 3 3 4 3 5 2 6 2 5 1 7 1 6 1 7 0 7 0 7 0 7 -1 7 -1 7 -2 7 -2 6 -2 6 -3 6 -2 5 -3 4 -4 4 -3 3 -4 3 -3 1 -4 1 -4 0 -5 -1 -51 -16 1 -3 1 -3 1 -4 1 -6 1 -8 1 -7c1,-4 1,-8 1,-12 0,-4 0,-8 0,-12 0,-3 0,-7 0,-11l-1 -7 -1 -6c-1,-6 -2,-11 -5,-16l47 -17 7 -1 5 -1 6 1 4 1 5 2zm-8 147l2 5 0 5 0 5 0 5 -2 6 -2 6 -2 6 -3 6 -3 5 -4 6 -5 6 -4 5 -5 5 -5 5 -5 5 -6 4 -5 3 -5 3 -5 3 -6 2 -5 1 -4 1 -5 -1 -4 0 -3 -2 -3 -3 -4 -3 -31 -44 2 -1 3 -2 5 -5 5 -5 6 -5c2,-3 5,-6 7,-9 3,-3 5,-6 7,-9 3,-3 5,-6 7,-9 2,-3 4,-6 5,-9l3 -6c3,-5 5,-10 6,-16l47 14 7 3 5 3 4 3 3 4 2 4zm-93 115l-1 4 -2 5 -3 4 -4 4 -5 4 -5 3 -5 4 -6 3 -6 2 -7 3 -6 2 -7 2 -7 1 -7 1 -7 0 -7 1 -6 -1 -6 0 -6 -1 -5 -2 -5 -2 -4 -2 -3 -3 -3 -3 -2 -3 -1 -4 -1 -5 0 -54 3 0 3 0 7 0 7 -1 8 -1c4,-1 7,-2 11,-3 4,-1 8,-2 11,-3 4,-1 7,-2 11,-4 3,-1 7,-2 10,-4l6 -3c5,-2 10,-5 14,-10l30 40 3 6 2 5 2 5 0 5 -1 5zm-142 38l-4 3 -4 2 -5 2 -6 1 -6 0 -6 0 -6 0 -7 -1 -6 -2 -7 -2 -6 -2 -7 -3 -6 -3 -7 -3 -6 -3 -5 -4 -5 -4 -5 -4 -4 -5 -3 -4 -3 -4 -2 -4 -1 -5 0 -4 0 -4 1 -4 3 -4 32 -43 2 1 3 2 2 2 6 4 7 3 7 4 7 3c4,1 7,2 11,3 4,2 7,3 11,4l7 1c3,1 6,2 10,2 5,1 11,2 17,1l1 49 -1 7 -1 6 -2 5 -3 4 -3 3zm-138 -53l-5 0 -4 -1 -5 -1 -5 -2 -5 -3 -5 -4 -5 -4 -5 -5 -4 -5 -5 -5 -4 -6 -3 -6 -4 -6 -3 -7 -3 -6 -2 -6 -2 -7 -1 -6 -1 -5 0 -6 1 -5 1 -4 1 -5 2 -3 3 -3 3 -2 4 -2 52 -17 1 3 1 3 2 6 3 7 4 7 4 6c2,4 4,7 6,10 2,3 4,6 7,9l4 6c3,3 5,5 7,8l5 4 4 4 2 1 2 2 2 1 1 0 -28 41 -4 5 -5 4 -4 3 -5 1 -5 1zm-80 -123l-4 -3 -4 -4 -3 -4 -2 -5 -3 -5 -1 -6 -2 -6 -1 -7 -1 -6 0 -7 0 -7 1 -7 1 -7 1 -7 2 -7 1 -6 3 -7 2 -5 3 -5 3 -5 3 -4 4 -3 3 -2 4 -2 4 -1 4 0 5 1 51 17 -1 3 -1 3 -1 3 -1 7 -2 7 -1 8c0,4 0,8 0,12l-1 7 0 8c1,4 1,7 1,11l1 6 1 7 1 5 1 3 1 2 1 2 0 1 -46 16 -7 2 -6 0 -5 0 -5 -1 -4 -2zm6 -152l-1 -5 0 -5 1 -6 1 -5 2 -6 3 -6 3 -6 3 -6 4 -6 4 -5 5 -6 5 -5 5 -5 5 -4 5 -4 5 -4 6 -3 5 -2 5 -2 5 -2 5 0 4 0 4 1 4 2 3 2 3 4 32 43 -2 2 -3 2 -3 2 -5 5 -5 5 -5 6c-2,3 -4,6 -7,9 -2,3 -4,6 -6,9 -2,3 -4,6 -6,10 -2,3 -4,5 -5,8 -2,3 -3,6 -4,9l-2 4c-1,2 -2,5 -3,7l-48 -15 -6 -3 -5 -3 -4 -4 -3 -4 -2 -4 -2 -4zm94 -110l2 -5 2 -4 3 -5 4 -4 4 -3 5 -4 6 -3 5 -3 7 -3 6 -2 7 -2 7 -2 7 -1 7 -1 7 -1 6 0 7 0 6 1 6 1 5 1 5 2 4 2 3 3 3 3 2 4 1 4 0 4 0 54 -3 0 -3 0 -7 1 -7 0 -7 2c-4,1 -8,1 -12,2 -3,1 -7,2 -11,4 -3,1 -7,2 -10,3l-7 3c-3,1 -6,3 -9,4 -5,3 -10,6 -14,10l-30 -39 -4 -6 -2 -6 -1 -5 0 -5 0 -4z"/>
   <path class="fil0" d="M578 681l15 -24 3 -5 5 4c3,2 7,5 10,7 5,5 11,9 17,14l0 0 0 0 0 0c3,3 4,10 3,16 0,6 -2,12 -6,15l0 0c0,1 0,1 0,1 -4,4 -9,8 -15,11 -6,3 -13,4 -20,2l3 -11c4,2 9,1 12,-1 5,-2 8,-5 12,-9l0 0 0 0c2,-2 3,-6 3,-9 1,-4 1,-6 0,-7 -5,-5 -10,-9 -16,-13 -2,-1 -3,-2 -5,-4l-11 19 -10 -6z"/>
   <path class="fil0" d="M551 831c9,1 18,0 27,-1 0,-2 -1,-5 -1,-8 0,-8 0,-17 -1,-26 0,-3 -2,-6 -5,-9 -3,-3 -6,-5 -9,-5 -3,0 -6,2 -8,4 -3,3 -5,7 -5,11 -2,7 -2,14 -1,20 0,5 1,9 3,14zm28 10c-10,1 -22,2 -32,1l-4 0 -1 -3c-3,-7 -5,-14 -5,-21 -1,-7 -1,-15 1,-23 1,-7 4,-13 8,-17 5,-4 10,-7 16,-7 6,0 12,3 16,8 5,4 9,11 9,16 1,9 1,18 1,27 1,4 1,8 1,13l0 5 -5 1c-8,0 -4,0 -5,0z"/>
   <path class="fil0" d="M674 649c-1,-1 -2,-3 -3,-5 -3,-4 -6,-8 -8,-13 -3,-10 -2,-18 2,-25 5,-8 13,-14 22,-17 2,-1 4,-2 6,-2 9,-3 18,-3 25,-1 7,2 13,8 16,16 1,1 1,2 1,3 1,5 2,10 2,16 0,2 1,4 1,6l-11 2c0,-3 -1,-5 -1,-7 0,-4 0,-7 -1,-10 -9,2 -17,4 -26,8 -8,3 -16,7 -24,11 2,2 3,5 5,7 1,1 2,3 3,5l-9 6zm1 -38c-2,3 -3,6 -3,9 8,-4 16,-8 24,-11 8,-3 17,-5 26,-7 -2,-3 -5,-5 -8,-5 -4,-2 -11,-2 -18,0 -2,1 -3,1 -5,2 -7,2 -13,7 -16,12z"/>
   <path class="fil0" d="M867 605c2,8 1,15 0,22 -2,6 -5,13 -9,19l-9 -6c2,-4 4,-8 6,-12 -8,-4 -15,-8 -23,-10 -8,-2 -16,-3 -23,-4 -1,4 -2,8 -1,12l-11 1c-1,-7 0,-14 2,-21 3,-7 7,-13 12,-19l9 7c-3,3 -5,6 -7,9 7,1 15,2 22,5 7,2 15,5 22,8 0,-3 0,-6 0,-9l10 -2z"/>
   <path class="fil0" d="M891 677c1,-7 5,-13 10,-18 5,-5 11,-8 17,-9 6,-1 12,1 16,4 5,4 9,10 10,15 1,3 0,6 -1,8 3,1 5,1 7,2 1,0 1,1 1,1 5,3 9,7 10,12 2,5 1,10 -1,15 0,1 0,1 -1,1 -3,6 -8,11 -15,14 -6,3 -14,4 -20,3l1 -11c5,1 10,0 15,-2 4,-3 8,-5 10,-9 0,0 0,0 0,-1 1,-2 1,-4 1,-7 -1,-2 -3,-4 -5,-5 0,-1 0,-1 0,-1 -1,0 -3,0 -4,-1 -3,0 -5,0 -7,0l-10 2 4 -9c1,-2 2,-3 2,-4 2,-2 3,-5 3,-6 -1,-2 -3,-6 -6,-8 -3,-2 -5,-3 -8,-3 -4,1 -8,3 -11,7 -4,3 -6,8 -7,12l-11 -2z"/>
   <path class="fil0" d="M946 773l1 0c10,-2 23,-5 33,1 6,3 10,8 14,14 3,6 5,12 5,18 -1,7 -2,14 -5,20 -3,6 -7,10 -12,14 -10,5 -22,3 -33,0 0,0 -1,0 -3,0l2 -11c1,0 2,0 4,1 2,0 4,0 6,1 1,-8 2,-16 2,-25 0,-8 0,-16 -1,-24 -3,0 -7,1 -10,1l-1 1 -2 -11zm29 11c-2,-1 -3,-2 -5,-2 1,8 1,16 1,25 0,8 -1,17 -2,25 3,0 5,0 7,-2 4,-2 6,-5 8,-9 2,-4 3,-9 3,-15 1,-4 -1,-9 -3,-13 -2,-4 -6,-7 -9,-9z"/>
   <path class="fil0" d="M924 890c6,4 12,7 18,10 5,3 11,6 17,9l5 3 -3 5 -2 4c-10,18 -28,50 -52,37 -18,-9 -15,-24 -7,-39 3,-6 7,-12 11,-17 2,-4 4,-7 6,-10l3 -5 4 3zm12 19c-4,-2 -8,-4 -12,-7 -2,2 -3,4 -4,6 -4,5 -7,11 -10,16 -5,10 -8,20 2,24 14,8 29,-17 37,-32 -4,-2 -8,-4 -13,-7z"/>
   <path class="fil0" d="M806 983c0,4 0,9 1,14 7,-1 15,-3 23,-6 8,-2 17,-6 26,-11 -2,-3 -4,-6 -7,-9l9 -7c4,5 9,12 11,20 2,5 2,11 1,16 -1,6 -3,12 -9,16 -4,4 -9,7 -17,10 -23,7 -35,1 -42,-9 -6,-10 -7,-24 -7,-34l11 0zm3 24c1,2 2,3 2,4 4,6 13,9 30,4 6,-2 10,-4 13,-7 3,-3 5,-6 6,-10 0,-2 0,-5 -1,-7 -8,5 -17,8 -26,11 -8,2 -16,4 -24,5z"/>
   <path class="fil0" d="M682 1005c1,1 1,2 2,3 6,5 12,9 18,9 6,1 12,-1 18,-6 1,-1 1,-1 2,-2 0,-1 1,-1 1,-2 2,-2 2,-5 1,-8 0,-4 -3,-8 -6,-11 -2,-2 -4,-4 -7,-5 -8,-5 -14,-7 -20,-6 -4,1 -8,4 -12,8 3,3 7,5 10,6 5,3 11,5 17,6l-2 10c-7,-1 -13,-3 -19,-6 -6,-2 -12,-6 -18,-10l-5 -3 4 -5c8,-9 15,-15 23,-17 8,-1 17,1 28,7 3,2 6,5 8,7 6,5 9,11 10,16 1,6 0,12 -3,17 0,1 -1,3 -2,4 -1,0 -2,1 -3,2 -8,7 -17,10 -26,9 -8,-1 -17,-5 -24,-12 -1,-1 -2,-2 -3,-3l8 -8z"/>
   <path class="fil0" d="M607 897c-4,2 -8,4 -12,6 4,8 8,16 13,23 5,7 11,13 17,19 3,-3 5,-6 8,-10l9 6c-5,9 -11,15 -17,19 -5,4 -11,6 -16,6 -6,0 -11,-1 -17,-5 -5,-3 -10,-8 -15,-16 -2,-2 -4,-5 -5,-8 -3,-8 -3,-16 0,-23l0 0c2,-7 8,-14 16,-19 4,-3 9,-6 15,-8l4 10zm-21 14c-2,2 -3,4 -4,7l0 0c-2,5 -2,10 0,15 1,2 2,4 4,6 4,6 8,10 12,13 4,2 7,3 10,3 3,0 6,-1 9,-3 -7,-6 -13,-13 -18,-20 -5,-7 -9,-14 -13,-21z"/>
  </g>
 </g>
</svg>
